<?xml version="1.0" encoding="UTF-8" standalone="no"?>
<svg
   width="200mm"
   height="90mm"
   viewBox="0 0 200 90"
   version="1.1"
   id="svg379"
   sodipodi:docname="thumbnail_pcm5102.svg"
   inkscape:version="1.2.1 (9c6d41e410, 2022-07-14)"
   xmlns:inkscape="http://www.inkscape.org/namespaces/inkscape"
   xmlns:sodipodi="http://sodipodi.sourceforge.net/DTD/sodipodi-0.dtd"
   xmlns="http://www.w3.org/2000/svg"
   xmlns:svg="http://www.w3.org/2000/svg">
  <defs
     id="defs383" />
  <sodipodi:namedview
     id="namedview381"
     pagecolor="#ffffff"
     bordercolor="#000000"
     borderopacity="0.25"
     inkscape:showpageshadow="2"
     inkscape:pageopacity="0.0"
     inkscape:pagecheckerboard="0"
     inkscape:deskcolor="#d1d1d1"
     inkscape:document-units="mm"
     showgrid="false"
     inkscape:zoom="1.196432"
     inkscape:cx="426.26742"
     inkscape:cy="208.1188"
     inkscape:window-width="1680"
     inkscape:window-height="979"
     inkscape:window-x="1912"
     inkscape:window-y="73"
     inkscape:window-maximized="1"
     inkscape:current-layer="svg379" />
  <path
     d="M 146.693,6.007 H 197.23 V 22.676 H 146.693 Z M 6.16,6.06 H 53.256 V 22.729 H 6.16 Z m 0,21.166 H 53.256 V 43.895 H 6.16 Z"
     id="path363" />
  <text
     style="-inkscape-font-specification:System-ui"
     x="149.08031"
     y="17.634499"
     font-size="10.7223px"
     font-family="System-ui"
     fill="#ff0000"
     stroke-width="3.55564"
     id="text367"><tspan
       x="149.08031"
       y="17.634499"
       id="tspan365"
       style="stroke-width:3.55564">PCM5102</tspan></text>
  <text
     style="-inkscape-font-specification:System-ui"
     x="12.936999"
     y="18.927002"
     font-size="12.956px"
     font-family="System-ui"
     fill="#ff0000"
     stroke-width="4.297"
     id="text371"><tspan
       x="12.936999"
       y="18.927002"
       id="tspan369">DAC</tspan></text>
  <text
     style="-inkscape-font-specification:System-ui"
     x="20.646"
     y="40.361"
     font-size="12.956px"
     font-family="System-ui"
     fill="#ff0000"
     stroke-width="4.297"
     id="text375"><tspan
       x="20.646"
       y="40.361"
       id="tspan373">I2S</tspan></text>
  <g
     id="g5610">
    <path
       id="rect4526"
       style="fill:#7d3187;fill-opacity:1;stroke:none;stroke-width:0.501969;stroke-linecap:round;stroke-miterlimit:4;stroke-dasharray:none;stroke-dashoffset:0;stroke-opacity:1"
       d="M 0.46147054 -76.069259 C 0.46147054 -74.547255 1.6871114 -73.322139 3.2091064 -73.322139 L 87.041715 -73.322139 C 88.563719 -73.322139 89.789351 -74.547255 89.789351 -76.069259 L 89.789351 -118.98964 C 89.789351 -120.51151 88.563719 -121.73676 87.041715 -121.73676 L 3.2091064 -121.73676 C 1.6871114 -121.73676 0.46147054 -120.51151 0.46147054 -118.98964 L 0.46147054 -76.069259 z M 1.8851562 -115.08755 A 2.3466747 2.3466747 0 0 1 4.2183472 -117.44761 A 2.3466747 2.3466747 0 0 1 6.5784098 -115.11442 A 2.3466747 2.3466747 0 0 1 4.2452189 -112.75436 A 2.3466747 2.3466747 0 0 1 1.8851562 -115.08755 z M 1.9993612 -93.280611 A 2.3466747 2.3466747 0 0 1 4.3325521 -95.640674 A 2.3466747 2.3466747 0 0 1 6.6926147 -93.307483 A 2.3466747 2.3466747 0 0 1 4.3594238 -90.94742 A 2.3466747 2.3466747 0 0 1 1.9993612 -93.280611 z M 1.9993612 -107.87559 A 2.3466747 2.3466747 0 0 1 4.3325521 -110.23565 A 2.3466747 2.3466747 0 0 1 6.6926147 -107.90246 A 2.3466747 2.3466747 0 0 1 4.3594238 -105.5424 A 2.3466747 2.3466747 0 0 1 1.9993612 -107.87559 z M 2.056722 -100.66414 A 2.3466747 2.3466747 0 0 1 4.3899129 -103.0242 A 2.3466747 2.3466747 0 0 1 6.7499756 -100.69101 A 2.3466747 2.3466747 0 0 1 4.4167847 -98.330949 A 2.3466747 2.3466747 0 0 1 2.056722 -100.66414 z M 2.1140828 -85.897083 A 2.3466747 2.3466747 0 0 1 4.4472738 -88.257145 A 2.3466747 2.3466747 0 0 1 6.8073364 -85.923954 A 2.3466747 2.3466747 0 0 1 4.4741455 -83.563892 A 2.3466747 2.3466747 0 0 1 2.1140828 -85.897083 z M 2.1709269 -78.857202 A 2.3466747 2.3466747 0 0 1 4.5041178 -81.217265 A 2.3466747 2.3466747 0 0 1 6.8646973 -78.884074 A 2.3466747 2.3466747 0 0 1 4.5315063 -76.524011 A 2.3466747 2.3466747 0 0 1 2.1709269 -78.857202 z M 20.028752 -118.46925 A 2.352699 2.4683962 0 0 1 22.367627 -120.95179 A 2.352699 2.4683962 0 0 1 24.733891 -118.49768 A 2.352699 2.4683962 0 0 1 22.395015 -116.01514 A 2.352699 2.4683962 0 0 1 20.028752 -118.46925 z M 27.494446 -118.46925 A 2.352699 2.4683962 0 0 1 29.833838 -120.95179 A 2.352699 2.4683962 0 0 1 32.200102 -118.49768 A 2.352699 2.4683962 0 0 1 29.86071 -116.01514 A 2.352699 2.4683962 0 0 1 27.494446 -118.46925 z M 34.473865 -118.46925 A 2.352699 2.4683962 0 0 1 36.81274 -120.95179 A 2.352699 2.4683962 0 0 1 39.179004 -118.49768 A 2.352699 2.4683962 0 0 1 36.839612 -116.01514 A 2.352699 2.4683962 0 0 1 34.473865 -118.46925 z M 41.615031 -118.46925 A 2.352699 2.4683962 0 0 1 43.954423 -120.95179 A 2.352699 2.4683962 0 0 1 46.32017 -118.49768 A 2.352699 2.4683962 0 0 1 43.981295 -116.01514 A 2.352699 2.4683962 0 0 1 41.615031 -118.46925 z M 49.081242 -118.46925 A 2.352699 2.4683962 0 0 1 51.420117 -120.95179 A 2.352699 2.4683962 0 0 1 53.786381 -118.49768 A 2.352699 2.4683962 0 0 1 51.446989 -116.01514 A 2.352699 2.4683962 0 0 1 49.081242 -118.46925 z M 55.735616 -118.46925 A 2.352699 2.4683962 0 0 1 58.074491 -120.95179 A 2.352699 2.4683962 0 0 1 60.440755 -118.49768 A 2.352699 2.4683962 0 0 1 58.10188 -116.01514 A 2.352699 2.4683962 0 0 1 55.735616 -118.46925 z M 63.039046 -118.46925 A 2.352699 2.4683962 0 0 1 65.378438 -120.95179 A 2.352699 2.4683962 0 0 1 67.744185 -118.49768 A 2.352699 2.4683962 0 0 1 65.40531 -116.01514 A 2.352699 2.4683962 0 0 1 63.039046 -118.46925 z M 69.855684 -118.46925 A 2.352699 2.4683962 0 0 1 72.195076 -120.95179 A 2.352699 2.4683962 0 0 1 74.56134 -118.49768 A 2.352699 2.4683962 0 0 1 72.221948 -116.01514 A 2.352699 2.4683962 0 0 1 69.855684 -118.46925 z M 76.997367 -118.46925 A 2.352699 2.4683962 0 0 1 79.336243 -120.95179 A 2.352699 2.4683962 0 0 1 81.702507 -118.49768 A 2.352699 2.4683962 0 0 1 79.363114 -116.01514 A 2.352699 2.4683962 0 0 1 76.997367 -118.46925 z "
       transform="rotate(90)" />
    <rect
       y="-104.05428"
       x="29.81612"
       height="18.773397"
       width="12.248496"
       id="rect4529"
       style="fill:#232633;fill-opacity:1;stroke:#000000;stroke-width:0.501969;stroke-linecap:round;stroke-miterlimit:4;stroke-dasharray:none;stroke-dashoffset:0;stroke-opacity:0"
       transform="rotate(90)" />
    <rect
       y="-110.46471"
       x="66.790558"
       height="37.088909"
       width="18.658924"
       id="rect4531"
       style="fill:#232633;fill-opacity:1;stroke:none;stroke-width:0.501969;stroke-linecap:round;stroke-miterlimit:4;stroke-dasharray:none;stroke-dashoffset:0;stroke-opacity:1"
       transform="rotate(90)" />
    <path
       sodipodi:nodetypes="ccccc"
       inkscape:connector-curvature="0"
       id="path4533"
       d="m 73.450694,68.911336 h -4.370968 c -0.505426,3.906264 -0.927323,8.165012 0,13.436692 l 4.451914,-0.08095 z"
       style="fill:#232633;fill-opacity:1;stroke:none;stroke-width:0.226643px;stroke-linecap:butt;stroke-linejoin:miter;stroke-opacity:1" />
    <text
       id="text4654"
       y="33.59269"
       x="87.388229"
       style="font-style:normal;font-variant:normal;font-weight:normal;font-stretch:normal;font-size:3.34166px;line-height:1.25;font-family:arial;-inkscape-font-specification:arial;letter-spacing:0px;word-spacing:0px;fill:#615f62;fill-opacity:1;stroke:none;stroke-width:0.179017;stroke-opacity:1"
       xml:space="preserve"><tspan
         style="font-style:normal;font-variant:normal;font-weight:normal;font-stretch:normal;font-family:arial;-inkscape-font-specification:arial;fill:#615f62;fill-opacity:1;stroke:none;stroke-width:0.179017;stroke-opacity:1"
         y="33.59269"
         x="87.388229"
         id="tspan4652"
         sodipodi:role="line">PCM5102</tspan></text>
    <text
       id="text4658"
       y="-113.81915"
       x="7.9222383"
       style="font-style:normal;font-variant:normal;font-weight:normal;font-stretch:normal;font-size:4.23067px;line-height:1.25;font-family:arial;-inkscape-font-specification:arial;letter-spacing:0px;word-spacing:0px;fill:#ffffff;fill-opacity:1;stroke:none;stroke-width:0.226643"
       xml:space="preserve"
       transform="rotate(90)"><tspan
         style="font-style:normal;font-variant:normal;font-weight:normal;font-stretch:normal;font-family:arial;-inkscape-font-specification:arial;fill:#ffffff;stroke-width:0.226643"
         y="-113.81915"
         x="7.9222383"
         id="tspan4656"
         sodipodi:role="line">SCK</tspan></text>
    <text
       id="text4658-8"
       y="-106.56083"
       x="7.8024254"
       style="font-style:normal;font-variant:normal;font-weight:normal;font-stretch:normal;font-size:4.23067px;line-height:1.25;font-family:arial;-inkscape-font-specification:arial;letter-spacing:0px;word-spacing:0px;fill:#ffffff;fill-opacity:1;stroke:none;stroke-width:0.226643"
       xml:space="preserve"
       transform="rotate(90)"><tspan
         style="font-style:normal;font-variant:normal;font-weight:normal;font-stretch:normal;font-family:arial;-inkscape-font-specification:arial;fill:#ffffff;stroke-width:0.226643"
         y="-106.56083"
         x="7.8024254"
         id="tspan4656-4"
         sodipodi:role="line">BCK</tspan></text>
    <text
       id="text4658-87"
       y="-99.410004"
       x="7.7858977"
       style="font-style:normal;font-variant:normal;font-weight:normal;font-stretch:normal;font-size:4.23067px;line-height:1.25;font-family:arial;-inkscape-font-specification:arial;letter-spacing:0px;word-spacing:0px;fill:#ffffff;fill-opacity:1;stroke:none;stroke-width:0.226643"
       xml:space="preserve"
       transform="rotate(90)"><tspan
         style="font-style:normal;font-variant:normal;font-weight:normal;font-stretch:normal;font-family:arial;-inkscape-font-specification:arial;fill:#ffffff;stroke-width:0.226643"
         y="-99.410004"
         x="7.7858977"
         id="tspan4656-8"
         sodipodi:role="line">DIN</tspan></text>
    <text
       id="text4658-7"
       y="-91.734222"
       x="7.8024254"
       style="font-style:normal;font-variant:normal;font-weight:normal;font-stretch:normal;font-size:4.23067px;line-height:1.25;font-family:arial;-inkscape-font-specification:arial;letter-spacing:0px;word-spacing:0px;fill:#ffffff;fill-opacity:1;stroke:none;stroke-width:0.226643"
       xml:space="preserve"
       transform="rotate(90)"><tspan
         style="font-style:normal;font-variant:normal;font-weight:normal;font-stretch:normal;font-family:arial;-inkscape-font-specification:arial;fill:#ffffff;stroke-width:0.226643"
         y="-91.734222"
         x="7.8024254"
         id="tspan4656-2"
         sodipodi:role="line">LCK</tspan></text>
    <text
       id="text4658-0"
       y="-84.287384"
       x="7.8871174"
       style="font-style:normal;font-variant:normal;font-weight:normal;font-stretch:normal;font-size:4.23067px;line-height:1.25;font-family:arial;-inkscape-font-specification:arial;letter-spacing:0px;word-spacing:0px;fill:#ffffff;fill-opacity:1;stroke:none;stroke-width:0.226643"
       xml:space="preserve"
       transform="rotate(90)"><tspan
         style="font-style:normal;font-variant:normal;font-weight:normal;font-stretch:normal;font-family:arial;-inkscape-font-specification:arial;fill:#ffffff;stroke-width:0.226643"
         y="-84.287384"
         x="7.8871174"
         id="tspan4656-89"
         sodipodi:role="line">GND</tspan></text>
    <text
       id="text4658-6"
       y="-77.164322"
       x="8.0936937"
       style="font-style:normal;font-variant:normal;font-weight:normal;font-stretch:normal;font-size:4.23067px;line-height:1.25;font-family:arial;-inkscape-font-specification:arial;letter-spacing:0px;word-spacing:0px;fill:#ffffff;fill-opacity:1;stroke:none;stroke-width:0.226643"
       xml:space="preserve"
       transform="rotate(90)"><tspan
         style="font-style:normal;font-variant:normal;font-weight:normal;font-stretch:normal;font-family:arial;-inkscape-font-specification:arial;fill:#ffffff;stroke-width:0.226643"
         y="-77.164322"
         x="8.0936937"
         id="tspan4656-6"
         sodipodi:role="line">VIN</tspan></text>
    <text
       id="text4658-4"
       y="-113.34372"
       x="18.231674"
       style="font-style:normal;font-variant:normal;font-weight:normal;font-stretch:normal;font-size:4.23067px;line-height:1.25;font-family:arial;-inkscape-font-specification:arial;letter-spacing:0px;word-spacing:0px;fill:#ffffff;fill-opacity:1;stroke:none;stroke-width:0.226643"
       xml:space="preserve"
       transform="rotate(90)"><tspan
         style="font-style:normal;font-variant:normal;font-weight:normal;font-stretch:normal;font-family:arial;-inkscape-font-specification:arial;fill:#ffffff;stroke-width:0.226643"
         y="-113.34372"
         x="18.231674"
         id="tspan4656-0"
         sodipodi:role="line">1</tspan></text>
    <text
       id="text4658-4-9"
       y="-113.34372"
       x="25.120705"
       style="font-style:normal;font-variant:normal;font-weight:normal;font-stretch:normal;font-size:4.23067px;line-height:1.25;font-family:arial;-inkscape-font-specification:arial;letter-spacing:0px;word-spacing:0px;fill:#ffffff;fill-opacity:1;stroke:none;stroke-width:0.226643"
       xml:space="preserve"
       transform="rotate(90)"><tspan
         style="font-style:normal;font-variant:normal;font-weight:normal;font-stretch:normal;font-family:arial;-inkscape-font-specification:arial;fill:#ffffff;stroke-width:0.226643"
         y="-113.34372"
         x="25.120705"
         id="tspan4656-0-2"
         sodipodi:role="line">2</tspan></text>
    <text
       id="text4658-4-4"
       y="-113.39743"
       x="31.87455"
       style="font-style:normal;font-variant:normal;font-weight:normal;font-stretch:normal;font-size:4.23067px;line-height:1.25;font-family:arial;-inkscape-font-specification:arial;letter-spacing:0px;word-spacing:0px;fill:#ffffff;fill-opacity:1;stroke:none;stroke-width:0.226643"
       xml:space="preserve"
       transform="rotate(90)"><tspan
         style="font-style:normal;font-variant:normal;font-weight:normal;font-stretch:normal;font-family:arial;-inkscape-font-specification:arial;fill:#ffffff;stroke-width:0.226643"
         y="-113.39743"
         x="31.87455"
         id="tspan4656-0-8"
         sodipodi:role="line">3</tspan></text>
    <text
       id="text4658-4-7"
       y="-113.34372"
       x="38.742855"
       style="font-style:normal;font-variant:normal;font-weight:normal;font-stretch:normal;font-size:4.23067px;line-height:1.25;font-family:arial;-inkscape-font-specification:arial;letter-spacing:0px;word-spacing:0px;fill:#ffffff;fill-opacity:1;stroke:none;stroke-width:0.226643"
       xml:space="preserve"
       transform="rotate(90)"><tspan
         style="font-style:normal;font-variant:normal;font-weight:normal;font-stretch:normal;font-family:arial;-inkscape-font-specification:arial;fill:#ffffff;stroke-width:0.226643"
         y="-113.34372"
         x="38.742855"
         id="tspan4656-0-4"
         sodipodi:role="line">4</tspan></text>
    <text
       id="text4658-4-0"
       y="-112.05914"
       x="63.826103"
       style="font-style:normal;font-variant:normal;font-weight:normal;font-stretch:normal;font-size:4.23067px;line-height:1.25;font-family:arial;-inkscape-font-specification:arial;letter-spacing:0px;word-spacing:0px;fill:#ffffff;fill-opacity:1;stroke:none;stroke-width:0.226643"
       xml:space="preserve"
       transform="rotate(90)"><tspan
         style="font-style:normal;font-variant:normal;font-weight:normal;font-stretch:normal;font-family:arial;-inkscape-font-specification:arial;fill:#ffffff;stroke-width:0.226643"
         y="-112.05914"
         x="63.826103"
         id="tspan4656-0-1"
         sodipodi:role="line">R</tspan></text>
    <text
       id="text4658-4-8"
       y="-112.11079"
       x="56.614464"
       style="font-style:normal;font-variant:normal;font-weight:normal;font-stretch:normal;font-size:4.23067px;line-height:1.25;font-family:arial;-inkscape-font-specification:arial;letter-spacing:0px;word-spacing:0px;fill:#ffffff;fill-opacity:1;stroke:none;stroke-width:0.226643"
       xml:space="preserve"
       transform="rotate(90)"><tspan
         style="font-style:normal;font-variant:normal;font-weight:normal;font-stretch:normal;font-family:arial;-inkscape-font-specification:arial;fill:#ffffff;stroke-width:0.226643"
         y="-112.11079"
         x="56.614464"
         id="tspan4656-0-25"
         sodipodi:role="line">G</tspan></text>
    <text
       id="text4658-4-2"
       y="-112.11079"
       x="70.808907"
       style="font-style:normal;font-variant:normal;font-weight:normal;font-stretch:normal;font-size:4.23067px;line-height:1.25;font-family:arial;-inkscape-font-specification:arial;letter-spacing:0px;word-spacing:0px;fill:#ffffff;fill-opacity:1;stroke:none;stroke-width:0.226643"
       xml:space="preserve"
       transform="rotate(90)"><tspan
         style="font-style:normal;font-variant:normal;font-weight:normal;font-stretch:normal;font-family:arial;-inkscape-font-specification:arial;fill:#ffffff;stroke-width:0.226643"
         y="-112.11079"
         x="70.808907"
         id="tspan4656-0-0"
         sodipodi:role="line">G</tspan></text>
    <text
       id="text4658-4-47"
       y="-112.05914"
       x="77.677216"
       style="font-style:normal;font-variant:normal;font-weight:normal;font-stretch:normal;font-size:4.23067px;line-height:1.25;font-family:arial;-inkscape-font-specification:arial;letter-spacing:0px;word-spacing:0px;fill:#ffffff;fill-opacity:1;stroke:none;stroke-width:0.226643"
       xml:space="preserve"
       transform="rotate(90)"><tspan
         style="font-style:normal;font-variant:normal;font-weight:normal;font-stretch:normal;font-family:arial;-inkscape-font-specification:arial;fill:#ffffff;stroke-width:0.226643"
         y="-112.05914"
         x="77.677216"
         id="tspan4656-0-7"
         sodipodi:role="line">L</tspan></text>
    <text
       transform="scale(-1)"
       id="text4658-4-21"
       y="-86.032181"
       x="-116.43768"
       style="font-style:normal;font-variant:normal;font-weight:normal;font-stretch:normal;font-size:4.23067px;line-height:1.25;font-family:arial;-inkscape-font-specification:arial;letter-spacing:0px;word-spacing:0px;fill:#ffffff;fill-opacity:1;stroke:none;stroke-width:0.226643"
       xml:space="preserve"><tspan
         style="font-style:normal;font-variant:normal;font-weight:normal;font-stretch:normal;font-family:arial;-inkscape-font-specification:arial;fill:#ffffff;stroke-width:0.226643"
         y="-86.032181"
         x="-116.43768"
         id="tspan4656-0-22"
         sodipodi:role="line">LINE OUT</tspan></text>
    <path
       d="m 6.787352,-114.85078 a 2.3466747,2.3466747 0 0 1 -2.3331921,2.36007 2.3466747,2.3466747 0 0 1 -2.3600802,-2.33318 2.3466747,2.3466747 0 0 1 2.3331715,-2.36009 2.3466747,2.3466747 0 0 1 2.3601006,2.33316"
       sodipodi:open="true"
       sodipodi:end="6.2774432"
       sodipodi:start="6.2774606"
       sodipodi:ry="2.3466747"
       sodipodi:rx="2.3466747"
       sodipodi:cy="-114.83735"
       sodipodi:cx="4.4407158"
       sodipodi:type="arc"
       id="path4537-03"
       style="fill:none;fill-opacity:1;stroke:#c79b71;stroke-width:1.11615;stroke-linecap:round;stroke-miterlimit:4;stroke-dasharray:none;stroke-dashoffset:0;stroke-opacity:1"
       sodipodi:arc-type="arc"
       transform="rotate(90)" />
    <path
       d="m 6.9018196,-107.63905 a 2.3466747,2.3466747 0 0 1 -2.333192,2.36007 2.3466747,2.3466747 0 0 1 -2.3600803,-2.33318 2.3466747,2.3466747 0 0 1 2.3331715,-2.36009 2.3466747,2.3466747 0 0 1 2.3601006,2.33316"
       sodipodi:open="true"
       sodipodi:end="6.2774432"
       sodipodi:start="6.2774606"
       sodipodi:ry="2.3466747"
       sodipodi:rx="2.3466747"
       sodipodi:cy="-107.62562"
       sodipodi:cx="4.5551834"
       sodipodi:type="arc"
       id="path4537-8-9"
       style="fill:none;fill-opacity:1;stroke:#c79b71;stroke-width:1.11615;stroke-linecap:round;stroke-miterlimit:4;stroke-dasharray:none;stroke-dashoffset:0;stroke-opacity:1"
       sodipodi:arc-type="arc"
       transform="rotate(90)" />
    <path
       d="m 6.9590592,-100.42732 a 2.3466747,2.3466747 0 0 1 -2.3331921,2.360069 2.3466747,2.3466747 0 0 1 -2.3600803,-2.333179 2.3466747,2.3466747 0 0 1 2.3331716,-2.36009 2.3466747,2.3466747 0 0 1 2.3601005,2.33316"
       sodipodi:open="true"
       sodipodi:end="6.2774432"
       sodipodi:start="6.2774606"
       sodipodi:ry="2.3466747"
       sodipodi:rx="2.3466747"
       sodipodi:cy="-100.41389"
       sodipodi:cx="4.6124229"
       sodipodi:type="arc"
       id="path4537-6-7"
       style="fill:none;fill-opacity:1;stroke:#c79b71;stroke-width:1.11615;stroke-linecap:round;stroke-miterlimit:4;stroke-dasharray:none;stroke-dashoffset:0;stroke-opacity:1"
       sodipodi:arc-type="arc"
       transform="rotate(90)" />
    <path
       d="m 6.9018196,-93.043883 a 2.3466747,2.3466747 0 0 1 -2.333192,2.36007 2.3466747,2.3466747 0 0 1 -2.3600803,-2.333182 2.3466747,2.3466747 0 0 1 2.3331715,-2.36009 2.3466747,2.3466747 0 0 1 2.3601006,2.333161"
       sodipodi:open="true"
       sodipodi:end="6.2774432"
       sodipodi:start="6.2774606"
       sodipodi:ry="2.3466747"
       sodipodi:rx="2.3466747"
       sodipodi:cy="-93.030449"
       sodipodi:cx="4.5551834"
       sodipodi:type="arc"
       id="path4537-1-7"
       style="fill:none;fill-opacity:1;stroke:#c79b71;stroke-width:1.11615;stroke-linecap:round;stroke-miterlimit:4;stroke-dasharray:none;stroke-dashoffset:0;stroke-opacity:1"
       sodipodi:arc-type="arc"
       transform="rotate(90)" />
    <path
       d="m 7.0162911,-85.660445 a 2.3466747,2.3466747 0 0 1 -2.3331921,2.36007 2.3466747,2.3466747 0 0 1 -2.3600803,-2.333181 2.3466747,2.3466747 0 0 1 2.3331716,-2.360091 2.3466747,2.3466747 0 0 1 2.3601005,2.333161"
       sodipodi:open="true"
       sodipodi:end="6.2774432"
       sodipodi:start="6.2774606"
       sodipodi:ry="2.3466747"
       sodipodi:rx="2.3466747"
       sodipodi:cy="-85.647011"
       sodipodi:cx="4.6696548"
       sodipodi:type="arc"
       id="path4537-86-0"
       style="fill:none;fill-opacity:1;stroke:#c79b71;stroke-width:1.11615;stroke-linecap:round;stroke-miterlimit:4;stroke-dasharray:none;stroke-dashoffset:0;stroke-opacity:1"
       sodipodi:arc-type="arc"
       transform="rotate(90)" />
    <path
       d="m 7.0735268,-78.620421 a 2.3466747,2.3466747 0 0 1 -2.3331921,2.36007 2.3466747,2.3466747 0 0 1 -2.3600802,-2.333182 2.3466747,2.3466747 0 0 1 2.3331715,-2.36009 2.3466747,2.3466747 0 0 1 2.3601006,2.333161"
       sodipodi:open="true"
       sodipodi:end="6.2774432"
       sodipodi:start="6.2774606"
       sodipodi:ry="2.3466747"
       sodipodi:rx="2.3466747"
       sodipodi:cy="-78.606987"
       sodipodi:cx="4.7268906"
       sodipodi:type="arc"
       id="path4537-0-8"
       style="fill:none;fill-opacity:1;stroke:#c79b71;stroke-width:1.11615;stroke-linecap:round;stroke-miterlimit:4;stroke-dasharray:none;stroke-dashoffset:0;stroke-opacity:1"
       sodipodi:arc-type="arc"
       transform="rotate(90)" />
    <path
       d="m 24.721967,-118.89767 a 2.352699,2.4683962 0 0 1 -2.339182,2.48249 2.352699,2.4683962 0 0 1 -2.366139,-2.45421 2.352699,2.4683962 0 0 1 2.339161,-2.4825 2.352699,2.4683962 0 0 1 2.36616,2.45418"
       sodipodi:open="true"
       sodipodi:end="6.2774432"
       sodipodi:start="6.2774606"
       sodipodi:ry="2.4683962"
       sodipodi:rx="2.352699"
       sodipodi:cy="-118.88354"
       sodipodi:cx="22.369307"
       sodipodi:type="arc"
       id="path4537-3-0"
       style="fill:none;fill-opacity:1;stroke:#c79b71;stroke-width:1.11615;stroke-linecap:round;stroke-miterlimit:4;stroke-dasharray:none;stroke-dashoffset:0;stroke-opacity:1"
       sodipodi:arc-type="arc"
       transform="rotate(90)" />
    <path
       d="m 32.187936,-118.89767 a 2.352699,2.4683962 0 0 1 -2.339182,2.48249 2.352699,2.4683962 0 0 1 -2.366139,-2.45421 2.352699,2.4683962 0 0 1 2.339162,-2.4825 2.352699,2.4683962 0 0 1 2.366159,2.45418"
       sodipodi:open="true"
       sodipodi:end="6.2774432"
       sodipodi:start="6.2774606"
       sodipodi:ry="2.4683962"
       sodipodi:rx="2.352699"
       sodipodi:cy="-118.88354"
       sodipodi:cx="29.835276"
       sodipodi:type="arc"
       id="path4537-9-0"
       style="fill:none;fill-opacity:1;stroke:#c79b71;stroke-width:1.11615;stroke-linecap:round;stroke-miterlimit:4;stroke-dasharray:none;stroke-dashoffset:0;stroke-opacity:1"
       sodipodi:arc-type="arc"
       transform="rotate(90)" />
    <path
       d="m 39.166972,-118.89767 a 2.352699,2.4683962 0 0 1 -2.339181,2.48249 2.352699,2.4683962 0 0 1 -2.366139,-2.45421 2.352699,2.4683962 0 0 1 2.339161,-2.4825 2.352699,2.4683962 0 0 1 2.366159,2.45418"
       sodipodi:open="true"
       sodipodi:end="6.2774432"
       sodipodi:start="6.2774606"
       sodipodi:ry="2.4683962"
       sodipodi:rx="2.352699"
       sodipodi:cy="-118.88354"
       sodipodi:cx="36.814312"
       sodipodi:type="arc"
       id="path4537-2-9"
       style="fill:none;fill-opacity:1;stroke:#c79b71;stroke-width:1.11615;stroke-linecap:round;stroke-miterlimit:4;stroke-dasharray:none;stroke-dashoffset:0;stroke-opacity:1"
       sodipodi:arc-type="arc"
       transform="rotate(90)" />
    <path
       d="m 46.308307,-118.89767 a 2.352699,2.4683962 0 0 1 -2.339182,2.48249 2.352699,2.4683962 0 0 1 -2.366139,-2.45421 2.352699,2.4683962 0 0 1 2.339161,-2.4825 2.352699,2.4683962 0 0 1 2.36616,2.45418"
       sodipodi:open="true"
       sodipodi:end="6.2774432"
       sodipodi:start="6.2774606"
       sodipodi:ry="2.4683962"
       sodipodi:rx="2.352699"
       sodipodi:cy="-118.88354"
       sodipodi:cx="43.955647"
       sodipodi:type="arc"
       id="path4537-81-5"
       style="fill:none;fill-opacity:1;stroke:#c79b71;stroke-width:1.11615;stroke-linecap:round;stroke-miterlimit:4;stroke-dasharray:none;stroke-dashoffset:0;stroke-opacity:1"
       sodipodi:arc-type="arc"
       transform="rotate(90)" />
    <path
       d="m 53.774288,-118.89767 a 2.352699,2.4683962 0 0 1 -2.339182,2.48249 2.352699,2.4683962 0 0 1 -2.366139,-2.45421 2.352699,2.4683962 0 0 1 2.339161,-2.4825 2.352699,2.4683962 0 0 1 2.366159,2.45418"
       sodipodi:open="true"
       sodipodi:end="6.2774432"
       sodipodi:start="6.2774606"
       sodipodi:ry="2.4683962"
       sodipodi:rx="2.352699"
       sodipodi:cy="-118.88354"
       sodipodi:cx="51.421627"
       sodipodi:type="arc"
       id="path4537-18-6"
       style="fill:none;fill-opacity:1;stroke:#c79b71;stroke-width:1.11615;stroke-linecap:round;stroke-miterlimit:4;stroke-dasharray:none;stroke-dashoffset:0;stroke-opacity:1"
       sodipodi:arc-type="arc"
       transform="rotate(90)" />
    <path
       d="m 60.428737,-118.89767 a 2.352699,2.4683962 0 0 1 -2.339182,2.48249 2.352699,2.4683962 0 0 1 -2.366139,-2.45421 2.352699,2.4683962 0 0 1 2.339161,-2.4825 2.352699,2.4683962 0 0 1 2.36616,2.45418"
       sodipodi:open="true"
       sodipodi:end="6.2774432"
       sodipodi:start="6.2774606"
       sodipodi:ry="2.4683962"
       sodipodi:rx="2.352699"
       sodipodi:cy="-118.88354"
       sodipodi:cx="58.076077"
       sodipodi:type="arc"
       id="path4537-07-2"
       style="fill:none;fill-opacity:1;stroke:#c79b71;stroke-width:1.11615;stroke-linecap:round;stroke-miterlimit:4;stroke-dasharray:none;stroke-dashoffset:0;stroke-opacity:1"
       sodipodi:arc-type="arc"
       transform="rotate(90)" />
    <path
       d="m 67.732337,-118.89767 a 2.352699,2.4683962 0 0 1 -2.339182,2.48249 2.352699,2.4683962 0 0 1 -2.366139,-2.45421 2.352699,2.4683962 0 0 1 2.339162,-2.4825 2.352699,2.4683962 0 0 1 2.366159,2.45418"
       sodipodi:open="true"
       sodipodi:end="6.2774432"
       sodipodi:start="6.2774606"
       sodipodi:ry="2.4683962"
       sodipodi:rx="2.352699"
       sodipodi:cy="-118.88354"
       sodipodi:cx="65.379677"
       sodipodi:type="arc"
       id="path4537-85-1"
       style="fill:none;fill-opacity:1;stroke:#c79b71;stroke-width:1.11615;stroke-linecap:round;stroke-miterlimit:4;stroke-dasharray:none;stroke-dashoffset:0;stroke-opacity:1"
       sodipodi:arc-type="arc"
       transform="rotate(90)" />
    <path
       d="m 74.549117,-118.89767 a 2.352699,2.4683962 0 0 1 -2.339181,2.48249 2.352699,2.4683962 0 0 1 -2.366139,-2.45421 2.352699,2.4683962 0 0 1 2.339161,-2.4825 2.352699,2.4683962 0 0 1 2.366159,2.45418"
       sodipodi:open="true"
       sodipodi:end="6.2774432"
       sodipodi:start="6.2774606"
       sodipodi:ry="2.4683962"
       sodipodi:rx="2.352699"
       sodipodi:cy="-118.88354"
       sodipodi:cx="72.196457"
       sodipodi:type="arc"
       id="path4537-7-7"
       style="fill:none;fill-opacity:1;stroke:#c79b71;stroke-width:1.11615;stroke-linecap:round;stroke-miterlimit:4;stroke-dasharray:none;stroke-dashoffset:0;stroke-opacity:1"
       sodipodi:arc-type="arc"
       transform="rotate(90)" />
    <path
       d="m 81.69046,-118.89767 a 2.352699,2.4683962 0 0 1 -2.339182,2.48249 2.352699,2.4683962 0 0 1 -2.366139,-2.45421 2.352699,2.4683962 0 0 1 2.339161,-2.4825 2.352699,2.4683962 0 0 1 2.366159,2.45418"
       sodipodi:open="true"
       sodipodi:end="6.2774432"
       sodipodi:start="6.2774606"
       sodipodi:ry="2.4683962"
       sodipodi:rx="2.352699"
       sodipodi:cy="-118.88354"
       sodipodi:cx="79.337799"
       sodipodi:type="arc"
       id="path4537-02-7"
       style="fill:none;fill-opacity:1;stroke:#c79b71;stroke-width:1.11615;stroke-linecap:round;stroke-miterlimit:4;stroke-dasharray:none;stroke-dashoffset:0;stroke-opacity:1"
       sodipodi:arc-type="arc"
       transform="rotate(90)" />
  </g>
  <text
     xml:space="preserve"
     style="font-size:8.46667px;font-family:'Mongolian Baiti';-inkscape-font-specification:'Mongolian Baiti';fill:#000000;stroke:#ffffff;stroke-width:2.60006"
     x="39.874901"
     y="17.357309"
     id="text1022"><tspan
       sodipodi:role="line"
       id="tspan1020"
       style="font-size:8.46667px;stroke-width:2.60006"
       x="39.874901"
       y="17.357309">🔈</tspan></text>
</svg>
