<svg width="200mm" height="90mm" viewBox="0 0 200 90" xmlns="http://www.w3.org/2000/svg"><path d="M146.693 6.007h50.537v16.669h-50.537ZM6.16 6.06h47.096v16.669H6.16Zm0 21.166h47.096v16.669H6.16Z"/><text style="-inkscape-font-specification:System-ui" x="149.08" y="17.634" font-size="10.722" font-family="System-ui" fill="red" stroke-width="3.556"><tspan x="149.08" y="17.634" style="stroke-width:3.55564">PCM5102</tspan></text><text style="-inkscape-font-specification:System-ui" x="12.937" y="18.927" font-size="12.956" font-family="System-ui" fill="red" stroke-width="4.297"><tspan x="12.937" y="18.927">DAC</tspan></text><text style="-inkscape-font-specification:System-ui" x="20.646" y="40.361" font-size="12.956" font-family="System-ui" fill="red" stroke-width="4.297"><tspan x="20.646" y="40.361">I2S</tspan></text><path style="fill:#7d3187;fill-opacity:1;stroke:none;stroke-width:.501969;stroke-linecap:round;stroke-miterlimit:4;stroke-dasharray:none;stroke-dashoffset:0;stroke-opacity:1" d="M.461-76.07a2.741 2.741 0 0 0 2.748 2.748h83.833a2.741 2.741 0 0 0 2.747-2.747v-42.92a2.742 2.742 0 0 0-2.747-2.748H3.209a2.742 2.742 0 0 0-2.748 2.747v42.92zm1.424-39.018a2.347 2.347 0 0 1 2.333-2.36 2.347 2.347 0 0 1 2.36 2.334 2.347 2.347 0 0 1-2.333 2.36 2.347 2.347 0 0 1-2.36-2.334zM2-93.28a2.347 2.347 0 0 1 2.334-2.36 2.347 2.347 0 0 1 2.36 2.334 2.347 2.347 0 0 1-2.334 2.36A2.347 2.347 0 0 1 2-93.281zm0-14.595a2.347 2.347 0 0 1 2.334-2.36 2.347 2.347 0 0 1 2.36 2.334 2.347 2.347 0 0 1-2.334 2.36A2.347 2.347 0 0 1 2-107.876zm.058 7.212a2.347 2.347 0 0 1 2.333-2.36 2.347 2.347 0 0 1 2.36 2.333 2.347 2.347 0 0 1-2.333 2.36 2.347 2.347 0 0 1-2.36-2.333zm.057 14.767a2.347 2.347 0 0 1 2.333-2.36 2.347 2.347 0 0 1 2.36 2.333 2.347 2.347 0 0 1-2.333 2.36 2.347 2.347 0 0 1-2.36-2.333zm.057 7.04a2.347 2.347 0 0 1 2.333-2.36 2.347 2.347 0 0 1 2.36 2.333 2.347 2.347 0 0 1-2.332 2.36 2.347 2.347 0 0 1-2.361-2.333zm17.858-39.612a2.353 2.468 0 0 1 2.339-2.483 2.353 2.468 0 0 1 2.366 2.454 2.353 2.468 0 0 1-2.339 2.483 2.353 2.468 0 0 1-2.366-2.454zm7.465 0a2.353 2.468 0 0 1 2.34-2.483 2.353 2.468 0 0 1 2.366 2.454 2.353 2.468 0 0 1-2.34 2.483 2.353 2.468 0 0 1-2.366-2.454zm6.98 0a2.353 2.468 0 0 1 2.339-2.483 2.353 2.468 0 0 1 2.366 2.454 2.353 2.468 0 0 1-2.34 2.483 2.353 2.468 0 0 1-2.365-2.454zm7.141 0a2.353 2.468 0 0 1 2.34-2.483 2.353 2.468 0 0 1 2.365 2.454 2.353 2.468 0 0 1-2.339 2.483 2.353 2.468 0 0 1-2.366-2.454zm7.466 0a2.353 2.468 0 0 1 2.34-2.483 2.353 2.468 0 0 1 2.365 2.454 2.353 2.468 0 0 1-2.339 2.483 2.353 2.468 0 0 1-2.366-2.454zm6.655 0a2.353 2.468 0 0 1 2.338-2.483 2.353 2.468 0 0 1 2.367 2.454 2.353 2.468 0 0 1-2.34 2.483 2.353 2.468 0 0 1-2.365-2.454zm7.303 0a2.353 2.468 0 0 1 2.34-2.483 2.353 2.468 0 0 1 2.365 2.454 2.353 2.468 0 0 1-2.339 2.483 2.353 2.468 0 0 1-2.366-2.454zm6.817 0a2.353 2.468 0 0 1 2.34-2.483 2.353 2.468 0 0 1 2.365 2.454 2.353 2.468 0 0 1-2.34 2.483 2.353 2.468 0 0 1-2.365-2.454zm7.141 0a2.353 2.468 0 0 1 2.34-2.483 2.353 2.468 0 0 1 2.366 2.454 2.353 2.468 0 0 1-2.34 2.483 2.353 2.468 0 0 1-2.366-2.454z" transform="rotate(90)"/><path style="fill:#232633;fill-opacity:1;stroke:#000;stroke-width:.501969;stroke-linecap:round;stroke-miterlimit:4;stroke-dasharray:none;stroke-dashoffset:0;stroke-opacity:0" transform="rotate(90)" d="M29.816-104.054h12.248v18.773H29.816z"/><path style="fill:#232633;fill-opacity:1;stroke:none;stroke-width:.501969;stroke-linecap:round;stroke-miterlimit:4;stroke-dasharray:none;stroke-dashoffset:0;stroke-opacity:1" transform="rotate(90)" d="M66.791-110.465H85.45v37.089H66.791z"/><path d="M73.45 68.911h-4.37c-.506 3.907-.928 8.165 0 13.437l4.452-.08z" style="fill:#232633;fill-opacity:1;stroke:none;stroke-width:.226643px;stroke-linecap:butt;stroke-linejoin:miter;stroke-opacity:1"/><text y="33.593" x="87.388" style="font-style:normal;font-variant:normal;font-weight:400;font-stretch:normal;font-size:3.34166px;line-height:1.25;font-family:arial;-inkscape-font-specification:arial;letter-spacing:0;word-spacing:0;fill:#615f62;fill-opacity:1;stroke:none;stroke-width:.179017;stroke-opacity:1" xml:space="preserve"><tspan style="font-style:normal;font-variant:normal;font-weight:400;font-stretch:normal;font-family:arial;-inkscape-font-specification:arial;fill:#615f62;fill-opacity:1;stroke:none;stroke-width:.179017;stroke-opacity:1" y="33.593" x="87.388">PCM5102</tspan></text><text y="-113.819" x="7.922" style="font-style:normal;font-variant:normal;font-weight:400;font-stretch:normal;font-size:4.23067px;line-height:1.25;font-family:arial;-inkscape-font-specification:arial;letter-spacing:0;word-spacing:0;fill:#fff;fill-opacity:1;stroke:none;stroke-width:.226643" xml:space="preserve" transform="rotate(90)"><tspan style="font-style:normal;font-variant:normal;font-weight:400;font-stretch:normal;font-family:arial;-inkscape-font-specification:arial;fill:#fff;stroke-width:.226643" y="-113.819" x="7.922">SCK</tspan></text><text y="-106.561" x="7.802" style="font-style:normal;font-variant:normal;font-weight:400;font-stretch:normal;font-size:4.23067px;line-height:1.25;font-family:arial;-inkscape-font-specification:arial;letter-spacing:0;word-spacing:0;fill:#fff;fill-opacity:1;stroke:none;stroke-width:.226643" xml:space="preserve" transform="rotate(90)"><tspan style="font-style:normal;font-variant:normal;font-weight:400;font-stretch:normal;font-family:arial;-inkscape-font-specification:arial;fill:#fff;stroke-width:.226643" y="-106.561" x="7.802">BCK</tspan></text><text y="-99.41" x="7.786" style="font-style:normal;font-variant:normal;font-weight:400;font-stretch:normal;font-size:4.23067px;line-height:1.25;font-family:arial;-inkscape-font-specification:arial;letter-spacing:0;word-spacing:0;fill:#fff;fill-opacity:1;stroke:none;stroke-width:.226643" xml:space="preserve" transform="rotate(90)"><tspan style="font-style:normal;font-variant:normal;font-weight:400;font-stretch:normal;font-family:arial;-inkscape-font-specification:arial;fill:#fff;stroke-width:.226643" y="-99.41" x="7.786">DIN</tspan></text><text y="-91.734" x="7.802" style="font-style:normal;font-variant:normal;font-weight:400;font-stretch:normal;font-size:4.23067px;line-height:1.25;font-family:arial;-inkscape-font-specification:arial;letter-spacing:0;word-spacing:0;fill:#fff;fill-opacity:1;stroke:none;stroke-width:.226643" xml:space="preserve" transform="rotate(90)"><tspan style="font-style:normal;font-variant:normal;font-weight:400;font-stretch:normal;font-family:arial;-inkscape-font-specification:arial;fill:#fff;stroke-width:.226643" y="-91.734" x="7.802">LCK</tspan></text><text y="-84.287" x="7.887" style="font-style:normal;font-variant:normal;font-weight:400;font-stretch:normal;font-size:4.23067px;line-height:1.25;font-family:arial;-inkscape-font-specification:arial;letter-spacing:0;word-spacing:0;fill:#fff;fill-opacity:1;stroke:none;stroke-width:.226643" xml:space="preserve" transform="rotate(90)"><tspan style="font-style:normal;font-variant:normal;font-weight:400;font-stretch:normal;font-family:arial;-inkscape-font-specification:arial;fill:#fff;stroke-width:.226643" y="-84.287" x="7.887">GND</tspan></text><text y="-77.164" x="8.094" style="font-style:normal;font-variant:normal;font-weight:400;font-stretch:normal;font-size:4.23067px;line-height:1.25;font-family:arial;-inkscape-font-specification:arial;letter-spacing:0;word-spacing:0;fill:#fff;fill-opacity:1;stroke:none;stroke-width:.226643" xml:space="preserve" transform="rotate(90)"><tspan style="font-style:normal;font-variant:normal;font-weight:400;font-stretch:normal;font-family:arial;-inkscape-font-specification:arial;fill:#fff;stroke-width:.226643" y="-77.164" x="8.094">VIN</tspan></text><text y="-113.344" x="18.232" style="font-style:normal;font-variant:normal;font-weight:400;font-stretch:normal;font-size:4.23067px;line-height:1.25;font-family:arial;-inkscape-font-specification:arial;letter-spacing:0;word-spacing:0;fill:#fff;fill-opacity:1;stroke:none;stroke-width:.226643" xml:space="preserve" transform="rotate(90)"><tspan style="font-style:normal;font-variant:normal;font-weight:400;font-stretch:normal;font-family:arial;-inkscape-font-specification:arial;fill:#fff;stroke-width:.226643" y="-113.344" x="18.232">1</tspan></text><text y="-113.344" x="25.121" style="font-style:normal;font-variant:normal;font-weight:400;font-stretch:normal;font-size:4.23067px;line-height:1.25;font-family:arial;-inkscape-font-specification:arial;letter-spacing:0;word-spacing:0;fill:#fff;fill-opacity:1;stroke:none;stroke-width:.226643" xml:space="preserve" transform="rotate(90)"><tspan style="font-style:normal;font-variant:normal;font-weight:400;font-stretch:normal;font-family:arial;-inkscape-font-specification:arial;fill:#fff;stroke-width:.226643" y="-113.344" x="25.121">2</tspan></text><text y="-113.397" x="31.875" style="font-style:normal;font-variant:normal;font-weight:400;font-stretch:normal;font-size:4.23067px;line-height:1.25;font-family:arial;-inkscape-font-specification:arial;letter-spacing:0;word-spacing:0;fill:#fff;fill-opacity:1;stroke:none;stroke-width:.226643" xml:space="preserve" transform="rotate(90)"><tspan style="font-style:normal;font-variant:normal;font-weight:400;font-stretch:normal;font-family:arial;-inkscape-font-specification:arial;fill:#fff;stroke-width:.226643" y="-113.397" x="31.875">3</tspan></text><text y="-113.344" x="38.743" style="font-style:normal;font-variant:normal;font-weight:400;font-stretch:normal;font-size:4.23067px;line-height:1.25;font-family:arial;-inkscape-font-specification:arial;letter-spacing:0;word-spacing:0;fill:#fff;fill-opacity:1;stroke:none;stroke-width:.226643" xml:space="preserve" transform="rotate(90)"><tspan style="font-style:normal;font-variant:normal;font-weight:400;font-stretch:normal;font-family:arial;-inkscape-font-specification:arial;fill:#fff;stroke-width:.226643" y="-113.344" x="38.743">4</tspan></text><text y="-112.059" x="63.826" style="font-style:normal;font-variant:normal;font-weight:400;font-stretch:normal;font-size:4.23067px;line-height:1.25;font-family:arial;-inkscape-font-specification:arial;letter-spacing:0;word-spacing:0;fill:#fff;fill-opacity:1;stroke:none;stroke-width:.226643" xml:space="preserve" transform="rotate(90)"><tspan style="font-style:normal;font-variant:normal;font-weight:400;font-stretch:normal;font-family:arial;-inkscape-font-specification:arial;fill:#fff;stroke-width:.226643" y="-112.059" x="63.826">R</tspan></text><text y="-112.111" x="56.614" style="font-style:normal;font-variant:normal;font-weight:400;font-stretch:normal;font-size:4.23067px;line-height:1.25;font-family:arial;-inkscape-font-specification:arial;letter-spacing:0;word-spacing:0;fill:#fff;fill-opacity:1;stroke:none;stroke-width:.226643" xml:space="preserve" transform="rotate(90)"><tspan style="font-style:normal;font-variant:normal;font-weight:400;font-stretch:normal;font-family:arial;-inkscape-font-specification:arial;fill:#fff;stroke-width:.226643" y="-112.111" x="56.614">G</tspan></text><text y="-112.111" x="70.809" style="font-style:normal;font-variant:normal;font-weight:400;font-stretch:normal;font-size:4.23067px;line-height:1.25;font-family:arial;-inkscape-font-specification:arial;letter-spacing:0;word-spacing:0;fill:#fff;fill-opacity:1;stroke:none;stroke-width:.226643" xml:space="preserve" transform="rotate(90)"><tspan style="font-style:normal;font-variant:normal;font-weight:400;font-stretch:normal;font-family:arial;-inkscape-font-specification:arial;fill:#fff;stroke-width:.226643" y="-112.111" x="70.809">G</tspan></text><text y="-112.059" x="77.677" style="font-style:normal;font-variant:normal;font-weight:400;font-stretch:normal;font-size:4.23067px;line-height:1.25;font-family:arial;-inkscape-font-specification:arial;letter-spacing:0;word-spacing:0;fill:#fff;fill-opacity:1;stroke:none;stroke-width:.226643" xml:space="preserve" transform="rotate(90)"><tspan style="font-style:normal;font-variant:normal;font-weight:400;font-stretch:normal;font-family:arial;-inkscape-font-specification:arial;fill:#fff;stroke-width:.226643" y="-112.059" x="77.677">L</tspan></text><text transform="scale(-1)" y="-86.032" x="-116.438" style="font-style:normal;font-variant:normal;font-weight:400;font-stretch:normal;font-size:4.23067px;line-height:1.25;font-family:arial;-inkscape-font-specification:arial;letter-spacing:0;word-spacing:0;fill:#fff;fill-opacity:1;stroke:none;stroke-width:.226643" xml:space="preserve"><tspan style="font-style:normal;font-variant:normal;font-weight:400;font-stretch:normal;font-family:arial;-inkscape-font-specification:arial;fill:#fff;stroke-width:.226643" y="-86.032" x="-116.438">LINE OUT</tspan></text><path d="M6.787-114.85a2.347 2.347 0 0 1-2.333 2.36 2.347 2.347 0 0 1-2.36-2.334 2.347 2.347 0 0 1 2.333-2.36 2.347 2.347 0 0 1 2.36 2.333M6.902-107.639a2.347 2.347 0 0 1-2.333 2.36 2.347 2.347 0 0 1-2.36-2.333 2.347 2.347 0 0 1 2.333-2.36 2.347 2.347 0 0 1 2.36 2.333M6.96-100.427a2.347 2.347 0 0 1-2.334 2.36 2.347 2.347 0 0 1-2.36-2.333 2.347 2.347 0 0 1 2.333-2.36 2.347 2.347 0 0 1 2.36 2.333M6.902-93.044a2.347 2.347 0 0 1-2.333 2.36 2.347 2.347 0 0 1-2.36-2.333 2.347 2.347 0 0 1 2.333-2.36 2.347 2.347 0 0 1 2.36 2.333M7.016-85.66a2.347 2.347 0 0 1-2.333 2.36 2.347 2.347 0 0 1-2.36-2.334 2.347 2.347 0 0 1 2.333-2.36 2.347 2.347 0 0 1 2.36 2.334M7.074-78.62a2.347 2.347 0 0 1-2.334 2.36 2.347 2.347 0 0 1-2.36-2.334 2.347 2.347 0 0 1 2.333-2.36 2.347 2.347 0 0 1 2.36 2.334M24.722-118.898a2.353 2.468 0 0 1-2.34 2.483 2.353 2.468 0 0 1-2.365-2.454 2.353 2.468 0 0 1 2.339-2.483 2.353 2.468 0 0 1 2.366 2.454M32.188-118.898a2.353 2.468 0 0 1-2.34 2.483 2.353 2.468 0 0 1-2.365-2.454 2.353 2.468 0 0 1 2.339-2.483 2.353 2.468 0 0 1 2.366 2.454M39.167-118.898a2.353 2.468 0 0 1-2.34 2.483 2.353 2.468 0 0 1-2.365-2.454 2.353 2.468 0 0 1 2.339-2.483 2.353 2.468 0 0 1 2.366 2.454M46.308-118.898a2.353 2.468 0 0 1-2.339 2.483 2.353 2.468 0 0 1-2.366-2.454 2.353 2.468 0 0 1 2.34-2.483 2.353 2.468 0 0 1 2.365 2.454M53.774-118.898a2.353 2.468 0 0 1-2.339 2.483 2.353 2.468 0 0 1-2.366-2.454 2.353 2.468 0 0 1 2.34-2.483 2.353 2.468 0 0 1 2.365 2.454M60.429-118.898a2.353 2.468 0 0 1-2.34 2.483 2.353 2.468 0 0 1-2.366-2.454 2.353 2.468 0 0 1 2.34-2.483 2.353 2.468 0 0 1 2.366 2.454M67.732-118.898a2.353 2.468 0 0 1-2.339 2.483 2.353 2.468 0 0 1-2.366-2.454 2.353 2.468 0 0 1 2.34-2.483 2.353 2.468 0 0 1 2.365 2.454M74.55-118.898a2.353 2.468 0 0 1-2.34 2.483 2.353 2.468 0 0 1-2.366-2.454 2.353 2.468 0 0 1 2.339-2.483 2.353 2.468 0 0 1 2.366 2.454M81.69-118.898a2.353 2.468 0 0 1-2.339 2.483 2.353 2.468 0 0 1-2.366-2.454 2.353 2.468 0 0 1 2.34-2.483 2.353 2.468 0 0 1 2.365 2.454" style="fill:none;fill-opacity:1;stroke:#c79b71;stroke-width:1.11615;stroke-linecap:round;stroke-miterlimit:4;stroke-dasharray:none;stroke-dashoffset:0;stroke-opacity:1" transform="rotate(90)"/><text xml:space="preserve" style="font-size:8.46667px;font-family:'Mongolian Baiti';-inkscape-font-specification:'Mongolian Baiti';fill:#000;stroke:#fff;stroke-width:2.60006" x="39.875" y="17.357"><tspan style="font-size:8.46667px;stroke-width:2.60006" x="39.875" y="17.357">🔈</tspan></text></svg>