<?xml version="1.0" encoding="UTF-8" standalone="no"?>
<svg
   width="200mm"
   height="90mm"
   viewBox="0 0 200 90"
   version="1.1"
   id="svg12925"
   sodipodi:docname="thumbnail_led.svg"
   inkscape:version="1.2.1 (9c6d41e410, 2022-07-14)"
   xmlns:inkscape="http://www.inkscape.org/namespaces/inkscape"
   xmlns:sodipodi="http://sodipodi.sourceforge.net/DTD/sodipodi-0.dtd"
   xmlns="http://www.w3.org/2000/svg"
   xmlns:svg="http://www.w3.org/2000/svg">
  <defs
     id="defs12929" />
  <sodipodi:namedview
     id="namedview12927"
     pagecolor="#ffffff"
     bordercolor="#000000"
     borderopacity="0.25"
     inkscape:showpageshadow="2"
     inkscape:pageopacity="0.0"
     inkscape:pagecheckerboard="0"
     inkscape:deskcolor="#d1d1d1"
     inkscape:document-units="mm"
     showgrid="false"
     inkscape:zoom="0.84600521"
     inkscape:cx="124.11271"
     inkscape:cy="78.013704"
     inkscape:window-width="1920"
     inkscape:window-height="1009"
     inkscape:window-x="-8"
     inkscape:window-y="-8"
     inkscape:window-maximized="1"
     inkscape:current-layer="svg12925" />
  <path
     fill="none"
     d="M106.419 41.19h-3.262v1.091h3.262zM95.506 41.19H92.24v1.091h3.266z"
     id="path12885" />
  <path
     d="M32.422 4.758h48.142v17.039H32.422zM116.098 5.595h48.142v17.039h-48.142z"
     id="path12915" />
  <text
     style="-inkscape-font-specification:System-ui"
     x="49.834"
     y="98.719"
     font-size="11.38"
     font-family="System-ui"
     fill="red"
     stroke-width="3.774"
     transform="translate(-3.575 -82.027)"
     id="text12919"><tspan
       x="49.834"
       y="98.719"
       id="tspan12917">LED</tspan></text>
  <text
     style="-inkscape-font-specification:System-ui"
     x="125.602"
     y="99.645"
     font-size="12.095"
     font-family="System-ui"
     fill="red"
     stroke-width="4.011"
     transform="translate(-3.575 -82.027)"
     id="text12923"><tspan
       x="125.602"
       y="99.645"
       id="tspan12921">Digital</tspan></text>
  <path
     style="fill:none;stroke:none;stroke-width:2.60006"
     d="m 90.116032,22.998938 -1.548006,4.422873 1.658578,4.3123 4.754586,3.759441 11.05718,0.663432 5.63917,-3.317155"
     id="path13160" />
  <g
     id="g16100"
     transform="matrix(1.2412018,0,0,1.2412018,14.857289,-16.543369)">
    <g
       id="g16091">
      <path
         style="fill:none;fill-opacity:1;stroke:#8c8c8c;stroke-width:2.60006;stroke-linecap:round;stroke-opacity:1"
         d="m 54.573884,83.971853 4.300235,-35.418295 7.331475,-11.66735"
         id="path13102"
         sodipodi:nodetypes="ccc" />
      <path
         style="fill:none;fill-opacity:1;stroke:#8c8c8c;stroke-width:2.60006;stroke-linecap:round;stroke-opacity:1"
         d="m 69.852556,36.700705 0.123988,9.50727 2.111023,38.076622"
         id="path13104"
         sodipodi:nodetypes="ccc" />
      <path
         id="rect15968"
         style="fill:#e40f0f;fill-opacity:0.727528;stroke:none;stroke-width:1.38773;stroke-linecap:round;stroke-dasharray:none;stroke-opacity:1"
         d="m 68.112122,13.9319 a 8.6246014,10.174397 0 0 0 -8.62428,10.174525 8.6246014,10.174397 0 0 0 0.0057,0.188442 h -0.0057 v 13.18915 h 17.249076 v -13.18915 h -0.0057 a 8.6246014,10.174397 0 0 0 0.0057,-0.188442 A 8.6246014,10.174397 0 0 0 68.112122,13.9319 Z" />
      <path
         style="fill:#000000;fill-opacity:0.5;stroke:none;stroke-width:1.7;stroke-linecap:round;stroke-dasharray:none;stroke-opacity:1"
         d="m 63.181541,34 0.07819,-8.824081 1.661455,0.01955 L 63.904764,26 l 3.381549,4 h -3.088348 l -0.02348,4 z"
         id="path16082"
         sodipodi:nodetypes="cccccccc" />
      <path
         style="fill:#000000;fill-opacity:0.5;stroke:none;stroke-width:1.7;stroke-linecap:round;stroke-dasharray:none;stroke-opacity:1"
         d="m 72.184922,26 1.465987,1 -0.04719,7 h -0.84934 L 72.61853,30 h -3.514023 l -3.45,-4 z"
         id="path16084"
         sodipodi:nodetypes="cccccccc" />
    </g>
    <rect
       style="fill:#e40f0f;fill-opacity:0.996078;stroke:none;stroke-width:1.09592;stroke-linecap:round;stroke-dasharray:none;stroke-opacity:1"
       id="rect15653"
       width="19.546522"
       height="2.5019548"
       x="58.326817"
       y="37.13839" />
  </g>
</svg>
