<svg width="200mm" height="90mm" viewBox="0 0 200 90" xmlns="http://www.w3.org/2000/svg"><path fill="none" d="M106.419 41.19h-3.262v1.091h3.262zm-10.913 0H92.24v1.091h3.266z"/><path d="M32.422 4.758h48.142v17.039H32.422zm83.676.837h48.142v17.039h-48.142z"/><text style="-inkscape-font-specification:System-ui" x="49.834" y="98.719" font-size="11.38" font-family="System-ui" fill="red" stroke-width="3.774" transform="translate(-3.575 -82.027)"><tspan x="49.834" y="98.719">LED</tspan></text><text style="-inkscape-font-specification:System-ui" x="125.602" y="99.645" font-size="12.095" font-family="System-ui" fill="red" stroke-width="4.011" transform="translate(-3.575 -82.027)"><tspan x="125.602" y="99.645">Digital</tspan></text><path style="fill:none;stroke:none;stroke-width:2.60006" d="m90.116 22.999-1.548 4.423 1.659 4.312 4.754 3.76 11.057.663 5.64-3.317"/><path style="fill:none;fill-opacity:1;stroke:#8c8c8c;stroke-width:2.60006;stroke-linecap:round;stroke-opacity:1" d="m54.574 83.972 4.3-35.418 7.332-11.668M69.853 36.7l.124 9.508 2.11 38.077" transform="translate(14.857 -16.543) scale(1.2412)"/><path style="fill:#e40f0f;fill-opacity:.727528;stroke:none;stroke-width:1.38773;stroke-linecap:round;stroke-dasharray:none;stroke-opacity:1" d="M68.112 13.932a8.625 10.174 0 0 0-8.624 10.174 8.625 10.174 0 0 0 .006.189h-.006v13.189h17.249v-13.19h-.006a8.625 10.174 0 0 0 .006-.188 8.625 10.174 0 0 0-8.625-10.174Z" transform="translate(14.857 -16.543) scale(1.2412)"/><path style="fill:#000;fill-opacity:.5;stroke:none;stroke-width:1.7;stroke-linecap:round;stroke-dasharray:none;stroke-opacity:1" d="m63.182 34 .078-8.824 1.661.02-1.016.804 3.381 4h-3.088l-.024 4zM72.185 26l1.466 1-.047 7h-.85l-.135-4h-3.514l-3.45-4z" transform="translate(14.857 -16.543) scale(1.2412)"/><path style="fill:#e40f0f;fill-opacity:.996078;stroke:none;stroke-width:1.09592;stroke-linecap:round;stroke-dasharray:none;stroke-opacity:1" d="M58.327 37.138h19.547v2.502H58.327z" transform="translate(14.857 -16.543) scale(1.2412)"/></svg>