<svg width="200mm" height="90mm" viewBox="0 0 200 90" xmlns="http://www.w3.org/2000/svg"><path fill="none" d="M132.273 62.905v6.008h-8.511v-6.008zm-60.829 7.396v6.804h-9.64v-6.804zm60.829-47.446v6.008h-8.511v-6.008zm-60.829 2.083v6.804h-9.64v-6.804z"/><path fill="none" d="M132.273 62.905v6.008h-6.008v-6.008zm-63.665 7.396v6.804h-6.804v-6.804zm63.665-47.446v6.008h-6.008v-6.008zm-63.665 2.083v6.804h-6.804v-6.804z"/><path d="M4.158 3.64h56.415v19.967H4.158Z"/><text style="-inkscape-font-specification:System-ui" x="8.935" y="18.112" font-size="13.335" font-family="System-ui" fill="red" stroke-width="4.423"><tspan x="8.935" y="18.112">SWITCH</tspan></text><path d="M140.19 3.64h56.415v19.967H140.19Z"/><text style="-inkscape-font-specification:System-ui" x="149.348" y="17.143" font-size="13.335" font-family="System-ui" fill="red" stroke-width="4.423"><tspan x="149.348" y="17.143">Digital</tspan></text><g transform="matrix(1.2195 0 0 1.2195 -21.594 -1.959)"><rect style="fill:#999;fill-opacity:1;stroke:none;stroke-width:.189937" width="10.565" height="5.777" x="66.14" y="22.922" rx="0" ry="0"/><rect style="fill:#999;fill-opacity:1;stroke:none;stroke-width:.189937" width="10.565" height="5.777" x="66.179" y="62.944" rx="0" ry="0"/><rect style="fill:#999;fill-opacity:1;stroke:none;stroke-width:.189937" width="10.565" height="5.777" x="121.848" y="62.866" rx="0" ry="0"/><rect style="fill:#999;fill-opacity:1;stroke:none;stroke-width:.189937" width="10.565" height="5.777" x="121.77" y="22.913" rx="0" ry="0"/><circle cx="28.816" cy="-116.651" r="4.253" transform="rotate(90)"/><rect style="fill:gray;stroke:none;stroke-width:.198654" width="48.881" height="48.66" x="74.36" y="22.021" rx="2.793" ry="2.805"/><circle style="fill:#000;fill-opacity:1;stroke:none;stroke-width:.2" cx="81.634" cy="28.735" r="4.202"/><circle style="fill:#000;fill-opacity:1;stroke:none;stroke-width:.2" cx="115.95" cy="28.735" r="4.202"/><circle style="fill:#000;fill-opacity:1;stroke:none;stroke-width:.2" cx="81.548" cy="63.722" r="4.202"/><circle style="fill:#000;fill-opacity:1;stroke:none;stroke-width:.2" cx="116.654" cy="63.722" r="4.202"/><ellipse style="fill:#404040;stroke:none;stroke-width:.202207" cx="99.198" cy="46.173" rx="14.253" ry="14.198"/><ellipse style="fill:#000;stroke:none;stroke-width:.175999" cx="99.296" cy="46.169" rx="12.39" ry="12.374"/></g></svg>