<svg width="200mm" height="90mm" viewBox="0 0 200 90" xmlns:xlink="http://www.w3.org/1999/xlink" xmlns="http://www.w3.org/2000/svg"><defs><linearGradient id="a"><stop offset="0" stop-color="green"/><stop offset="1" stop-color="#f60"/></linearGradient><linearGradient xlink:href="#a" id="b" x1="96.839" y1="103.708" x2="96.839" y2="130.38" gradientUnits="userSpaceOnUse"/></defs><g transform="translate(-3.575 -82.027)"><path d="M141.423 88.906h47.096v16.669h-47.096zm-117.475.397h47.096v16.669H23.948zm0 21.167h47.096v16.669H23.948z"/><path fill="none" d="M129.799 133.096v2.58h-3.654v-2.58zm0-17.197v2.58h-3.654v-2.58z"/><path fill="none" d="M128.724 133.096v2.58h-2.58v-2.58zm0-17.197v2.58h-2.58v-2.58z"/><path d="M78.868 83.285a3.516 3.516 0 0 0-3.523 3.523v80.583a3.516 3.516 0 0 0 3.523 3.524h56.196a3.517 3.517 0 0 0 3.524-3.524V86.808a3.516 3.516 0 0 0-3.524-3.523zm16.544.853a2.313 2.368 0 0 1 2.313 2.368 2.313 2.368 0 0 1-2.313 2.368 2.313 2.368 0 0 1-2.312-2.368 2.313 2.368 0 0 1 2.312-2.368zm5.727 0a2.313 2.368 0 0 1 2.313 2.368 2.313 2.368 0 0 1-2.313 2.368 2.313 2.368 0 0 1-2.312-2.368 2.313 2.368 0 0 1 2.312-2.368zm5.837 0a2.313 2.368 0 0 1 2.312 2.368 2.313 2.368 0 0 1-2.312 2.368 2.313 2.368 0 0 1-2.313-2.368 2.313 2.368 0 0 1 2.313-2.368zm5.892 0a2.313 2.368 0 0 1 2.312 2.368 2.313 2.368 0 0 1-2.312 2.368 2.313 2.368 0 0 1-2.313-2.368 2.313 2.368 0 0 1 2.313-2.368zm5.891 0a2.313 2.368 0 0 1 2.313 2.368 2.313 2.368 0 0 1-2.313 2.368 2.313 2.368 0 0 1-2.312-2.368 2.313 2.368 0 0 1 2.312-2.368zm5.766 0a2.313 2.368 0 0 1 2.313 2.368 2.313 2.368 0 0 1-2.313 2.368 2.313 2.368 0 0 1-2.313-2.368 2.313 2.368 0 0 1 2.313-2.368zm-37.206.074h4.735v4.482H87.32zm-6.415 1.41a2.946 2.772 0 0 1 2.945 2.772 2.946 2.772 0 0 1-2.945 2.772 2.946 2.772 0 0 1-2.946-2.772 2.946 2.772 0 0 1 2.946-2.772zm52.172.146a2.946 2.772 0 0 1 2.946 2.773 2.946 2.772 0 0 1-2.946 2.771 2.946 2.772 0 0 1-2.946-2.771 2.946 2.772 0 0 1 2.946-2.773zm-52.31 77.97a2.946 2.772 0 0 1 2.946 2.771 2.946 2.772 0 0 1-2.946 2.773 2.946 2.772 0 0 1-2.946-2.773 2.946 2.772 0 0 1 2.946-2.771zm51.76.22a2.946 2.772 0 0 1 2.945 2.772 2.946 2.772 0 0 1-2.946 2.771 2.946 2.772 0 0 1-2.946-2.771 2.946 2.772 0 0 1 2.946-2.772z" fill="#1083b0"/><path fill="#423d3b" d="M76.801 153.845h59.248v5.837H76.801z"/><path fill="#333" d="M78.159 152.686h57.265v1.211H78.159z"/><path fill="#d4aa00" d="M82.442 159.68h48.7v2.379h-48.7z"/><path fill="#333" d="M83.629 162.049h46.088v.551H83.629z"/><path fill="#1a1a1a" d="M77.132 94.212h59.248v58.697H77.132z"/><text transform="scale(.69297 1.44306)" y="64.771" x="125.069" style="line-height:1.25;-inkscape-font-specification:Arial" font-weight="400" font-size="3.737" font-family="Arial" letter-spacing="0" word-spacing="0" fill="#fff" stroke-width=".308"><tspan y="64.771" x="125.069">GND</tspan></text><text transform="scale(.69297 1.44306)" y="64.771" x="133.811" style="line-height:1.25;-inkscape-font-specification:Arial" font-weight="400" font-size="3.737" font-family="Arial" letter-spacing="0" word-spacing="0" fill="#fff" stroke-width=".308"><tspan y="64.771" x="133.811">VCC</tspan></text><text transform="scale(.69297 1.44306)" y="64.771" x="142.407" style="line-height:1.25;-inkscape-font-specification:Arial" font-weight="400" font-size="3.737" font-family="Arial" letter-spacing="0" word-spacing="0" fill="#fff" stroke-width=".308"><tspan y="64.771" x="142.407">SCL</tspan></text><text transform="scale(.69297 1.44306)" y="64.771" x="150.554" style="line-height:1.25;-inkscape-font-specification:Arial" font-weight="400" font-size="3.737" font-family="Arial" letter-spacing="0" word-spacing="0" fill="#fff" stroke-width=".308"><tspan y="64.771" x="150.554">SDA</tspan></text><text transform="scale(.69297 1.44306)" y="64.771" x="159.094" style="line-height:1.25;-inkscape-font-specification:Arial" font-weight="400" font-size="3.737" font-family="Arial" letter-spacing="0" word-spacing="0" fill="#fff" stroke-width=".308"><tspan y="64.771" x="159.094">RES</tspan></text><text transform="scale(.69297 1.44306)" y="64.771" x="168.702" style="line-height:1.25;-inkscape-font-specification:Arial" font-weight="400" font-size="3.737" font-family="Arial" letter-spacing="0" word-spacing="0" fill="#fff" stroke-width=".308"><tspan y="64.771" x="168.702">DC</tspan></text><text transform="scale(.69297 1.44306)" y="64.817" x="175.838" style="line-height:1.25;-inkscape-font-specification:Arial" font-weight="400" font-size="3.737" font-family="Arial" letter-spacing="0" word-spacing="0" fill="#fff" stroke-width=".308"><tspan y="64.817" x="175.838">BLK</tspan></text><text y="168.472" x="93.696" style="line-height:1.25;-inkscape-font-specification:Arial" font-weight="400" font-size="3.7" font-family="Arial" letter-spacing="0" word-spacing="0" fill="#fff" stroke-width=".308"><tspan y="168.472" x="93.696">IPS 240*240</tspan></text><ellipse cx="107.013" cy="-86.507" rx="2.099" ry="2.193" transform="scale(1 -1)" fill="none" stroke="#4d4d4d" stroke-width=".807"/><ellipse cx="101.036" cy="-86.501" rx="2.099" ry="2.193" transform="scale(1 -1)" fill="none" stroke="#4d4d4d" stroke-width=".807"/><ellipse cx="95.548" cy="-86.501" rx="2.099" ry="2.193" transform="scale(1 -1)" fill="none" stroke="#4d4d4d" stroke-width=".807"/><ellipse cx="112.928" cy="-86.587" rx="2.099" ry="2.193" transform="scale(1 -1)" fill="none" stroke="#4d4d4d" stroke-width=".807"/><ellipse cx="118.907" cy="-86.501" rx="2.099" ry="2.193" transform="scale(1 -1)" fill="none" stroke="#4d4d4d" stroke-width=".807"/><ellipse cx="124.629" cy="-86.458" rx="2.099" ry="2.193" transform="scale(1 -1)" fill="none" stroke="#4d4d4d" stroke-width=".807"/><path fill="none" stroke="#4d4d4d" stroke-width=".852" d="M87.693 84.57h4.162v3.754h-4.162z"/><path d="m88.124 110.248-.147 12.001" fill="#0ff"/><path fill="url(#b)" d="M77.223 93.9h59.194v58.677H77.223z"/><text style="-inkscape-font-specification:System-ui" x="143.635" y="102.133" font-size="12.956" font-family="System-ui" fill="red" stroke-width="4.297"><tspan x="143.635" y="102.133">ST7789</tspan></text><text style="-inkscape-font-specification:System-ui" x="35.886" y="102.17" font-size="12.956" font-family="System-ui" fill="red" stroke-width="4.297"><tspan x="35.886" y="102.17">TFT</tspan></text><text style="-inkscape-font-specification:System-ui" x="35.68" y="123.605" font-size="12.956" font-family="System-ui" fill="red" stroke-width="4.297"><tspan x="35.68" y="123.605">SPI</tspan></text></g></svg>