<svg width="200mm" height="90mm" viewBox="0 0 200 90" xmlns="http://www.w3.org/2000/svg"><g transform="translate(-3.575 -82.027)"><path d="M61.039 83.018a.327.327 0 00-.328.327v85.81c0 .182.147.328.328.328h85.67a.327.327 0 00.328-.328v-85.81a.326.326 0 00-.327-.327zm55.716 1.455a3.177 3.064 0 013.177 3.063 3.177 3.064 0 01-3.177 3.064 3.177 3.064 0 01-3.177-3.064 3.177 3.064 0 013.177-3.063zm-24.81.249a3.177 3.064 0 013.177 3.063 3.177 3.064 0 01-3.177 3.064 3.177 3.064 0 01-3.177-3.064 3.177 3.064 0 013.177-3.063zm8.27 0a3.177 3.064 0 013.176 3.063 3.177 3.064 0 01-3.176 3.064 3.177 3.064 0 01-3.177-3.064 3.177 3.064 0 013.177-3.063zm8.27 0a3.177 3.064 0 013.177 3.063 3.177 3.064 0 01-3.177 3.064 3.177 3.064 0 01-3.177-3.064 3.177 3.064 0 013.177-3.063zm-40.115.04a5.228 5.042 0 015.228 5.041 5.228 5.042 0 01-5.228 5.042 5.228 5.042 0 01-5.228-5.042 5.228 5.042 0 015.228-5.041zm71.2.095a5.228 5.042 0 015.227 5.041 5.228 5.042 0 01-5.228 5.042 5.228 5.042 0 01-5.228-5.042 5.228 5.042 0 015.228-5.041zm.19 72.295a5.228 5.042 0 015.227 5.042 5.228 5.042 0 01-5.228 5.042 5.228 5.042 0 01-5.228-5.042 5.228 5.042 0 015.228-5.042zm-70.915.761a5.228 5.042 0 015.229 5.042 5.228 5.042 0 01-5.229 5.042 5.228 5.042 0 01-5.228-5.042 5.228 5.042 0 015.228-5.042z" fill="#1172a4"/><text style="line-height:1.25;-inkscape-font-specification:Arial;font-variant-ligatures:none" x="88.531" y="95.187" transform="scale(.99965 1.00035)" font-size="3.101" font-family="Arial" fill="#fff" stroke-width=".211"><tspan x="88.531" y="95.187">GND</tspan></text><text style="line-height:1.25;-inkscape-font-specification:Arial;font-variant-ligatures:none" x="97.018" y="95.187" transform="scale(.99965 1.00035)" font-size="3.101" font-family="Arial" fill="#fff" stroke-width=".211"><tspan x="97.018" y="95.187">VCC</tspan></text><text style="line-height:1.25;-inkscape-font-specification:Arial;font-variant-ligatures:none" x="105.492" y="95.187" transform="scale(.99965 1.00035)" font-size="3.101" font-family="Arial" fill="#fff" stroke-width=".211"><tspan x="105.492" y="95.187">SCL</tspan></text><text style="line-height:1.25;-inkscape-font-specification:Arial;font-variant-ligatures:none" x="113.536" y="95.187" transform="scale(.99965 1.00035)" font-size="3.101" font-family="Arial" fill="#fff" stroke-width=".211"><tspan x="113.536" y="95.187">SDA</tspan></text><rect width="80.125" height="46.278" x="64.329" y="96.984" ry=".32" fill="#0b090c"/><rect width="48.964" height="5.437" x="78.572" y="143.262" ry=".34" fill="#3d3e3d"/><rect width="47.323" height="9.686" x="79.511" y="145.985" ry="2.488" fill="#0b090c"/><rect width="34.953" height="14.193" x="85.584" y="155.242" ry=".337" fill="#92600c"/><rect width="32.539" height="17.493" x="86.791" y="151.229" ry="4.494" fill="#0b090c"/><ellipse cx="68.504" cy="90.058" rx="5.145" ry="5.253" fill="none" stroke="#404040" stroke-width="1.012"/><ellipse cx="139.548" cy="90.058" rx="5.145" ry="5.253" fill="none" stroke="#404040" stroke-width="1.012"/><ellipse cx="68.733" cy="162.576" rx="5.145" ry="5.253" fill="none" stroke="#404040" stroke-width="1.012"/><ellipse cx="140.035" cy="162.576" rx="5.145" ry="5.253" fill="none" stroke="#404040" stroke-width="1.012"/><ellipse cx="91.905" cy="87.756" rx="3.255" ry="3.323" fill="none" stroke="#404040" stroke-width=".64"/><ellipse cx="99.938" cy="87.753" rx="3.257" ry="3.325" fill="none" stroke="#404040" stroke-width=".64"/><ellipse cx="108.291" cy="87.796" rx="3.218" ry="3.286" fill="none" stroke="#404040" stroke-width=".633"/><ellipse cx="116.766" cy="87.592" rx="3.235" ry="3.303" fill="none" stroke="#404040" stroke-width=".636"/><text style="-inkscape-font-specification:System-ui" x="65.493" y="104.591" font-weight="400" font-size="7.653" font-family="System-ui" fill="#0ff" stroke-width="2.538"><tspan style="-inkscape-font-specification:System-ui" x="65.493" y="104.591">HELLO WORLD</tspan></text><path d="M150.268 88.034h50.537v16.669h-50.537zM9.735 88.087h47.096v16.669H9.735zM9.735 109.253h47.096v16.669H9.735z"/><text style="-inkscape-font-specification:System-ui" x="152.537" y="100.584" font-size="12.011" font-family="System-ui" fill="red" stroke-width="3.983"><tspan x="152.537" y="100.584">SSD1306</tspan></text><text style="-inkscape-font-specification:System-ui" x="16.512" y="100.954" font-size="12.956" font-family="System-ui" fill="red" stroke-width="4.297"><tspan x="16.512" y="100.954">OLED</tspan></text><text style="-inkscape-font-specification:System-ui" x="24.221" y="122.388" font-size="12.956" font-family="System-ui" fill="red" stroke-width="4.297"><tspan x="24.221" y="122.388">i²C</tspan></text></g></svg>