<?xml version="1.0" encoding="UTF-8" standalone="no"?>
<svg
   width="106.13906mm"
   height="53.730015mm"
   viewBox="0 0 106.13906 53.730015"
   version="1.1"
   id="svg3382"
   sodipodi:docname="d1_mini_led_connection.svg"
   inkscape:version="1.2.1 (9c6d41e410, 2022-07-14)"
   xmlns:inkscape="http://www.inkscape.org/namespaces/inkscape"
   xmlns:sodipodi="http://sodipodi.sourceforge.net/DTD/sodipodi-0.dtd"
   xmlns="http://www.w3.org/2000/svg"
   xmlns:svg="http://www.w3.org/2000/svg">
  <defs
     id="defs3386" />
  <sodipodi:namedview
     id="namedview3384"
     pagecolor="#ffffff"
     bordercolor="#000000"
     borderopacity="0.25"
     inkscape:showpageshadow="2"
     inkscape:pageopacity="0.0"
     inkscape:pagecheckerboard="0"
     inkscape:deskcolor="#d1d1d1"
     inkscape:document-units="mm"
     showgrid="false"
     inkscape:zoom="6.7680417"
     inkscape:cx="344.41277"
     inkscape:cy="26.743334"
     inkscape:window-width="1920"
     inkscape:window-height="1009"
     inkscape:window-x="-8"
     inkscape:window-y="-8"
     inkscape:window-maximized="1"
     inkscape:current-layer="svg3382" />
  <g
     id="d1_mini_led_connection">
    <g
       transform="matrix(0.45916,0,0,0.45916,0.32202999,44.280017)"
       id="g3244">
      <path
         fill="none"
         d="m 0.5,3.59 h 1 v 1 h -1 z m 40.917,0 h 1 v 1 h -1 z"
         id="path3218" />
      <path
         stroke-linecap="round"
         stroke="#8c8c8c"
         fill="none"
         stroke-width="2.91"
         d="m 2.302,5.045 h 1.455 m 36.604,0 h -1.455"
         id="path3220" />
      <path
         fill="none"
         stroke="#8c8c8c"
         stroke-width="2.91"
         d="M 3.487,5.045 H 40.853"
         id="path3222" />
      <path
         fill="#d9b477"
         d="m 14.233,0.688 c -0.5,-0.23 -1.36,-0.41 -1.91,-0.41 h -2.76 c -0.55,0 -1,0.45 -1,1 v 7.439 c 0,0.551 0.45,1 1,1 h 2.76 c 0.55,0 1.41,-0.189 1.91,-0.41 l 0.1,-0.049 c 0.5,-0.23 1.36,-0.41 1.91,-0.41 h 9.98 c 0.551,0 1.409,0.189 1.909,0.41 l 0.101,0.049 c 0.5,0.23 1.358,0.41 1.91,0.41 h 2.76 c 0.552,0 1,-0.449 1,-1 V 1.278 c 0,-0.55 -0.448,-1 -1,-1 h -2.76 c -0.552,0 -1.41,0.19 -1.91,0.41 l -0.101,0.05 c -0.5,0.23 -1.358,0.41 -1.909,0.41 h -9.98 c -0.55,0 -1.41,-0.19 -1.91,-0.41 z"
         id="path3224" />
      <path
         fill="#ad9f4e"
         d="m 30.582,0.269 h 0.976 v 9.438 h -0.976 z"
         id="path3226" />
      <path
         fill="#8a3d06"
         d="m 22.462,1.148 h 2.57 v 7.69 h -2.57 z"
         id="path3228" />
      <path
         fill="#c40808"
         d="m 17.323,1.148 h 2.57 v 7.69 h -2.57 z m -2.561,-0.26 c -0.16,-0.05 -0.31,-0.1 -0.43,-0.16 l -0.1,-0.05 c -0.5,-0.229 -1.36,-0.41 -1.91,-0.41 h -0.12 v 9.439 h 0.12 c 0.55,0 1.41,-0.189 1.91,-0.41 l 0.1,-0.049 c 0.12,-0.062 0.27,-0.111 0.43,-0.16 z"
         id="path3230" />
      <path
         opacity="0.3"
         d="m 32.932,5.68 c 0,0.527 -0.181,0.971 -0.41,0.971 h -2.67 c -0.528,0 -1.358,-0.078 -1.851,-0.17 L 27.9,6.459 C 27.421,6.369 26.582,6.289 26.048,6.289 H 16.4 c -0.53,0 -1.36,0.08 -1.85,0.17 L 14.45,6.48 C 13.97,6.571 13.14,6.65 12.6,6.65 H 10.34 C 9.81,6.65 9.37,7.058 9.37,7.546 V 8.35 c 0,0.5 0.44,0.896 0.97,0.896 h 2.25 c 0.53,0 1.36,-0.17 1.85,-0.371 l 0.1,-0.039 C 15.02,8.64 15.86,8.468 16.39,8.468 h 9.648 c 0.527,0 1.357,0.172 1.853,0.369 l 0.103,0.039 c 0.479,0.201 1.312,0.371 1.852,0.371 h 3.09 c 0.529,0 0.971,-0.41 0.971,-0.896 V 3.688 c -0.385,0.15 -0.975,0.57 -0.975,1.992 z"
         id="path3232" />
      <path
         opacity="0.4"
         d="m 30.582,4.838 h 0.976 v 4.379 h -0.976 z"
         id="path3234" />
      <path
         opacity="0.25"
         fill="#ffffff"
         d="m 27.432,1.508 c 0.319,0 0.682,-0.14 0.92,-0.24 0.28,-0.11 0.801,-0.2 1.342,-0.2 h 2.029 c 0.312,0 0.312,0.34 0.312,0.52 0,0.18 -0.021,0.53 -0.312,0.53 h -4.25 c -0.149,0 -0.32,-0.16 -0.32,-0.311 0.009,-0.119 0.109,-0.299 0.279,-0.299 z"
         id="path3236" />
      <circle
         opacity="0.35"
         fill="#ffffff"
         cx="9.7220001"
         cy="1.5779999"
         r="0.60000002"
         id="circle3238" />
      <path
         opacity="0.5"
         fill="#ffff33"
         d="m 30.582,0.588 h 0.976 v 2.25 h -0.976 z"
         id="path3240" />
      <path
         opacity="0.5"
         fill="#ffffff"
         d="m 30.582,1.088 h 0.976 v 1.04 h -0.976 z"
         id="path3242" />
    </g>
    <path
       d="m 1.30003,20.808017 2.217,0.029 0.066,-19.4580005 96.297463,0.2347443 -0.0063,5.9872322"
       fill="none"
       stroke="#000000"
       stroke-width="1.021"
       stroke-linecap="round"
       style="stroke-width:2.60006;stroke-dasharray:none"
       id="path3248"
       sodipodi:nodetypes="ccccc" />
    <path
       d="m 18.68503,42.371017 -1.937,-0.015 0.211,-38.3820005 79.448271,0.2505718 2e-4,3.3765908"
       fill="none"
       stroke="#008000"
       stroke-width="1.021"
       stroke-linecap="round"
       style="stroke-width:2.60006;stroke-dasharray:none"
       id="path3250"
       sodipodi:nodetypes="ccccc" />
    <path
       d="m 3.03703,49.256017 h 18.67 v 4.474 h -18.67 z"
       id="path3252" />
    <text
       style="line-height:1.25;-inkscape-font-specification:Arial;font-variant-ligatures:none"
       x="4.2420292"
       y="52.95602"
       font-size="3.881px"
       font-family="Arial"
       stroke-width="0.265"
       id="text3256"><tspan
         x="4.2420292"
         y="52.95602"
         fill="#ffffff"
         id="tspan3254">220ohms</tspan></text>
  </g>
</svg>
