<svg width="200mm" height="90mm" viewBox="0 0 200 90" xmlns="http://www.w3.org/2000/svg"><g transform="matrix(0 1.18348 -1.18348 0 186.837 -194.637)"><rect style="fill:#f7a538;fill-opacity:1;stroke:none;stroke-width:.9;stroke-dasharray:none" width="74.648" height="37.044" x="165.243" y="53.129" ry="4.49"/><rect style="fill:#232323;fill-opacity:1;stroke:none;stroke-width:.899999;stroke-dasharray:none" width="33.115" height="16.557" x="173.288" y="63.419" ry=".935"/><path style="fill:#f7a538;fill-opacity:1;stroke:#af6707;stroke-width:.899999;stroke-dasharray:none;stroke-opacity:1" d="m228.807 60.519-11.46.093c-1.184.333-1.396 1.112-1.87 1.918l-.047 17.82c.442 1.18 1.381 1.744 2.058 2.105l11.74-.047"/><text xml:space="preserve" style="font-style:normal;font-variant:normal;font-weight:400;font-stretch:normal;font-size:12.7px;font-family:Arial;-inkscape-font-specification:Arial;fill:#fa9627;fill-opacity:1;stroke:none;stroke-width:.899999;stroke-dasharray:none" x="-80.537" y="227.226" transform="rotate(-90)"><tspan style="font-style:normal;font-variant:normal;font-weight:400;font-stretch:normal;font-size:12.7px;font-family:Arial;-inkscape-font-specification:Arial;fill:#fa9627;fill-opacity:1;stroke:none;stroke-width:.9" x="-80.537" y="227.226">M5</tspan></text></g><path style="fill:#c00;fill-opacity:.485955;stroke:none;stroke-width:2.48529;stroke-miterlimit:3.9;stroke-dasharray:none;stroke-opacity:1" d="m92.123 18.888-12.04-.066V5.213C80.674 2.86 82.2 1.44 84.534.83l7.59.066z"/><rect style="fill:#000;fill-opacity:1;stroke:none;stroke-width:2.48529;stroke-miterlimit:3.9;stroke-dasharray:none;stroke-opacity:1" width="16.227" height="5.234" x="61.633" y="3.512" ry="2.617"/><text xml:space="preserve" style="font-style:normal;font-variant:normal;font-weight:400;font-stretch:normal;font-size:5.43885px;font-family:Arial;-inkscape-font-specification:Arial;fill:#c00;fill-opacity:1;stroke:none;stroke-width:1.19912;stroke-miterlimit:3.9;stroke-dasharray:none;stroke-opacity:1" x="64.168" y="8.032"><tspan style="fill:#c00;stroke-width:1.19912" x="64.168" y="8.032">G10</tspan></text></svg>