<svg width="200mm" height="90mm" viewBox="0 0 200 90" xmlns="http://www.w3.org/2000/svg"><defs><clipPath clipPathUnits="userSpaceOnUse" id="prefix__a"/></defs><g transform="translate(-3.575 -82.027)"><path d="M47.438 85.876v80.843h115.608V85.876zm29.026 3.965a5.985 5.594 0 015.986 5.593 5.985 5.594 0 01-5.986 5.594 5.985 5.594 0 01-5.984-5.594 5.985 5.594 0 015.984-5.593zm19.695 0a5.985 5.594 0 015.985 5.593 5.985 5.594 0 01-5.985 5.594 5.985 5.594 0 01-5.985-5.594 5.985 5.594 0 015.985-5.593zm18.701 0a5.985 5.594 0 015.986 5.593 5.985 5.594 0 01-5.986 5.594 5.985 5.594 0 01-5.985-5.594 5.985 5.594 0 015.985-5.593zm38.562 0a5.985 5.594 0 015.984 5.593 5.985 5.594 0 01-5.984 5.594 5.985 5.594 0 01-5.986-5.594 5.985 5.594 0 015.986-5.593zm-96.238.077a5.985 5.594 0 015.985 5.594 5.985 5.594 0 01-5.985 5.594 5.985 5.594 0 01-5.985-5.594 5.985 5.594 0 015.985-5.594zm76.543.077a5.985 5.594 0 015.985 5.595 5.985 5.594 0 01-5.985 5.593 5.985 5.594 0 01-5.985-5.593 5.985 5.594 0 015.985-5.595zm-67.731 44.877a14.895 13.921 0 0114.895 13.921 14.895 13.921 0 01-14.895 13.921 14.895 13.921 0 01-14.895-13.92 14.895 13.921 0 0114.895-13.922zm77.66.47a14.895 13.921 0 0114.896 13.92 14.895 13.921 0 01-14.895 13.921 14.895 13.921 0 01-14.895-13.92 14.895 13.921 0 0114.895-13.922z" fill="#762966"/><ellipse cy="149.108" cx="66.7" rx="14.895" ry="13.921" fill="none" stroke="#8c673a" stroke-width="2.706" stroke-linecap="round"/><ellipse cy="95.064" cx="57.222" rx="6.085" ry="5.687" fill="none" stroke="#8c673a" stroke-width="1.105" stroke-linecap="round"/><ellipse cy="95.296" cx="76.405" rx="6.085" ry="5.687" fill="none" stroke="#8c673a" stroke-width="1.105" stroke-linecap="round"/><ellipse cy="95.54" cx="96.298" rx="6.085" ry="5.687" fill="none" stroke="#8c673a" stroke-width="1.105" stroke-linecap="round"/><ellipse cy="95.54" cx="114.847" rx="6.085" ry="5.687" fill="none" stroke="#8c673a" stroke-width="1.105" stroke-linecap="round"/><ellipse cy="96.028" cx="133.763" rx="6.085" ry="5.687" fill="none" stroke="#8c673a" stroke-width="1.105" stroke-linecap="round"/><ellipse cy="95.54" cx="153.899" rx="6.085" ry="5.687" fill="none" stroke="#8c673a" stroke-width="1.105" stroke-linecap="round"/><ellipse cy="148.87" cx="143.526" rx="14.895" ry="13.921" fill="none" stroke="#8c673a" stroke-width="2.706" stroke-linecap="round"/><text transform="matrix(0 -.96676 1.03438 0 0 0)" y="152.597" x="-128.432" style="line-height:1.25;-inkscape-font-specification:Arial" font-weight="400" font-size="9.557" font-family="Arial" letter-spacing="0" word-spacing="0" fill="#fff" stroke-width=".448"><tspan y="152.597" x="-128.432">VCC</tspan></text><text transform="matrix(0 -.96676 1.03438 0 0 0)" y="132.513" x="-129.633" style="line-height:1.25;-inkscape-font-specification:Arial" font-weight="400" font-size="9.557" font-family="Arial" letter-spacing="0" word-spacing="0" fill="#fff" stroke-width=".448"><tspan y="132.513" x="-129.633">GND</tspan></text><text transform="matrix(0 -.96676 1.03438 0 0 0)" y="113.796" x="-125.978" style="line-height:1.25;-inkscape-font-specification:Arial" font-weight="400" font-size="9.557" font-family="Arial" letter-spacing="0" word-spacing="0" fill="#fff" stroke-width=".448"><tspan y="113.796" x="-125.978">SCL</tspan></text><text transform="matrix(0 -.96676 1.03438 0 0 0)" y="96.386" x="-128.297" style="line-height:1.25;-inkscape-font-specification:Arial" font-weight="400" font-size="9.557" font-family="Arial" letter-spacing="0" word-spacing="0" fill="#fff" stroke-width=".448"><tspan y="96.386" x="-128.297">SDA</tspan></text><text transform="matrix(0 -.96676 1.03438 0 0 0)" y="76.794" x="-127.774" style="line-height:1.25;-inkscape-font-specification:Arial" font-weight="400" font-size="9.557" font-family="Arial" letter-spacing="0" word-spacing="0" fill="#fff" stroke-width=".448"><tspan y="76.794" x="-127.774">CSB</tspan></text><text transform="matrix(0 -.96676 1.03438 0 0 0)" y="59.809" x="-126.766" style="line-height:1.25;-inkscape-font-specification:Arial" font-weight="400" font-size="9.557" font-family="Arial" letter-spacing="0" word-spacing="0" fill="#fff" stroke-width=".448"><tspan y="59.809" x="-126.766">SD0</tspan></text><rect width="20.027" height="19.084" x="94.473" y="138.642" ry="1.043" fill="#6c5353"/><path d="M6.309 88.418h37.47v13.262H6.309zM164.973 87.196h34.72v12.288h-34.72zM6.623 122.363h37.47v13.262H6.623z"/><text style="-inkscape-font-specification:System-ui" x="11.7" y="98.655" font-size="10.308" font-family="System-ui" fill="red" stroke-width="3.419"><tspan x="11.7" y="98.655">🌡️°C️️</tspan></text><text style="-inkscape-font-specification:System-ui" x="16.775" y="132.627" font-size="10.308" font-family="System-ui" fill="red" stroke-width="3.419"><tspan x="16.775" y="132.627">hPa</tspan></text><path d="M6.741 105.085h37.47v13.262H6.741z"/><text style="-inkscape-font-specification:System-ui" x="13.191" y="115.322" font-size="10.308" font-family="System-ui" fill="red" stroke-width="3.419"><tspan x="13.191" y="115.322">🌧️%</tspan></text><text style="-inkscape-font-specification:System-ui" x="167.258" y="95.679" font-size="8.207" font-family="System-ui" fill="red" stroke-width="2.722"><tspan x="167.258" y="95.679">BME280</tspan></text><path d="M165.077 102.895h34.72v12.288h-34.72z"/><text style="-inkscape-font-specification:System-ui" x="175.756" y="112.578" font-size="9.551" font-family="System-ui" fill="red" stroke-width="3.168"><tspan x="175.756" y="112.578">i²C</tspan></text></g></svg>